<?xml version="1.0" encoding="utf-8"?>
<!-- Generator: Adobe Illustrator 27.8.0, SVG Export Plug-In . SVG Version: 6.00 Build 0)  -->
<svg version="1.1" id="Layer_1" xmlns="http://www.w3.org/2000/svg" xmlns:xlink="http://www.w3.org/1999/xlink" x="0px" y="0px"
	 viewBox="0 0 311 201" style="enable-background:new 0 0 311 201;" xml:space="preserve">
<style type="text/css">
	.st0{clip-path:url(#SVGID_00000046338818054368869160000002940341532861880455_);fill:#0FEFA4;}
	.st1{clip-path:url(#SVGID_00000046338818054368869160000002940341532861880455_);fill:#F9FF00;}
</style>
<g>
	<defs>
		<rect id="SVGID_1_" width="311" height="201"/>
	</defs>
	<clipPath id="SVGID_00000118391646295480796460000006312965600695258294_">
		<use xlink:href="#SVGID_1_"  style="overflow:visible;"/>
	</clipPath>
	<path style="clip-path:url(#SVGID_00000118391646295480796460000006312965600695258294_);fill:#0FEFA4;" d="M149.1-121.2
		C94.4-119.7,44.7-98.5,6.7-64.5C-39.2-23.6-68,35.9-68,102.2c0,1.1,0.1,2.2,0.1,3.4c1,65.9,30.5,124.9,76.7,165.1
		c37.8,32.9,86.7,53.3,140.3,54.8c2.1,0.1,4.3,0.2,6.4,0.2c51.7,0,99.3-17.6,137.2-47.1c51.7-40.3,85.2-102.7,86.2-173
		c0-1.1,0.1-2.2,0.1-3.4c0-70.8-32.9-133.8-84.3-174.8c-38.2-30.5-86.6-48.7-139.3-48.7C153.4-121.4,151.2-121.3,149.1-121.2z"/>
	<path style="clip-path:url(#SVGID_00000118391646295480796460000006312965600695258294_);fill:#F9FF00;" d="M378.9,96.7H-67.9v17.7
		h446.8V96.7z"/>
	<path style="clip-path:url(#SVGID_00000118391646295480796460000006312965600695258294_);fill:#F9FF00;" d="M152.6,51.7h-0.8
		C80.1,51.3,16.3-0.5,0.1-71.3l17.4-4C31.8-12.4,88.3,33.5,151.8,33.9c0.2,0,0.5,0,0.7,0c66.6,0,125.3-50.1,136.7-116.8l17.5,3
		C293.9-4.7,227.7,51.7,152.6,51.7L152.6,51.7z"/>
	<path style="clip-path:url(#SVGID_00000118391646295480796460000006312965600695258294_);fill:#F9FF00;" d="M289.2,285.7
		c-11.4-66.7-70.1-116.8-136.7-116.8c-0.2,0-0.5,0-0.7,0c-63.5,0.4-120,46.2-134.4,109.1l-17.4-4c16.2-70.9,80-122.6,151.6-123h0.8
		c75.1,0,141.4,56.4,154.2,131.6L289.2,285.7L289.2,285.7z"/>
	<path style="clip-path:url(#SVGID_00000118391646295480796460000006312965600695258294_);fill:#F9FF00;" d="M162.3-124h-17.8v449.5
		h17.8V-124z"/>
</g>
</svg>
