<?xml version="1.0" encoding="utf-8"?>
<!-- Generator: Adobe Illustrator 27.8.0, SVG Export Plug-In . SVG Version: 6.00 Build 0)  -->
<svg version="1.1" id="Layer_1" xmlns="http://www.w3.org/2000/svg" xmlns:xlink="http://www.w3.org/1999/xlink" x="0px" y="0px"
	 viewBox="0 0 311 201" style="enable-background:new 0 0 311 201;" xml:space="preserve">
<style type="text/css">
	.st0{clip-path:url(#SVGID_00000005255628206167729090000008375153045041724048_);fill:#F462D8;}
	.st1{clip-path:url(#SVGID_00000005255628206167729090000008375153045041724048_);fill:#7037FB;}
</style>
<g>
	<defs>
		<rect id="SVGID_1_" width="311" height="201"/>
	</defs>
	<clipPath id="SVGID_00000062193950108598614490000006963299227832330122_">
		<use xlink:href="#SVGID_1_"  style="overflow:visible;"/>
	</clipPath>
	<path style="clip-path:url(#SVGID_00000062193950108598614490000006963299227832330122_);fill:#F462D8;" d="M186.1,6.7v-38.4
		l33.2-19.2l33.2,19.2V6.7l-33.2,19.2L186.1,6.7z"/>
	<path style="clip-path:url(#SVGID_00000062193950108598614490000006963299227832330122_);fill:#7037FB;" d="M252.3,6.7v-38.4
		l33.2-19.2l33.2,19.2V6.7l-33.2,19.2L252.3,6.7z"/>
	<path style="clip-path:url(#SVGID_00000062193950108598614490000006963299227832330122_);fill:#7037FB;" d="M-12.6,6.7v-38.4
		l33.2-19.2l33.2,19.2V6.7L20.7,25.9L-12.6,6.7z"/>
	<path style="clip-path:url(#SVGID_00000062193950108598614490000006963299227832330122_);fill:#7037FB;" d="M119.9,6.6v-38.4
		l33.2-19.2l33.2,19.2V6.6l-33.2,19.2L119.9,6.6z"/>
	<path style="clip-path:url(#SVGID_00000062193950108598614490000006963299227832330122_);fill:#F462D8;" d="M53.7,6.7v-38.4
		l33.2-19.2l33.2,19.2V6.7L86.9,25.9L53.7,6.7z"/>
	<path style="clip-path:url(#SVGID_00000062193950108598614490000006963299227832330122_);fill:#7037FB;" d="M219.1,64.1V25.8
		l33.2-19.2l33.2,19.2v38.4l-33.2,19.2L219.1,64.1z"/>
	<path style="clip-path:url(#SVGID_00000062193950108598614490000006963299227832330122_);fill:#7037FB;" d="M152.9,64.1V25.8
		l33.2-19.2l33.2,19.2v38.4l-33.2,19.2L152.9,64.1z"/>
	<path style="clip-path:url(#SVGID_00000062193950108598614490000006963299227832330122_);fill:#7037FB;" d="M285.3,64.1V25.8
		l33.2-19.2l33.2,19.2v38.4l-33.2,19.2L285.3,64.1z"/>
	<path style="clip-path:url(#SVGID_00000062193950108598614490000006963299227832330122_);fill:#7037FB;" d="M20.4,64.1V25.8
		L53.7,6.6l33.2,19.2v38.4L53.7,83.3L20.4,64.1z"/>
	<path style="clip-path:url(#SVGID_00000062193950108598614490000006963299227832330122_);fill:#7037FB;" d="M-45.8,64.1V25.8
		l33.2-19.2l33.2,19.2v38.4l-33.2,19.2L-45.8,64.1z"/>
	<path style="clip-path:url(#SVGID_00000062193950108598614490000006963299227832330122_);fill:#7037FB;" d="M86.7,64.1V25.8
		l33.2-19.2l33.2,19.2v38.4l-33.2,19.2L86.7,64.1z"/>
	<path style="clip-path:url(#SVGID_00000062193950108598614490000006963299227832330122_);fill:#7037FB;" d="M186.1,121.6V83.3
		l33.2-19.2l33.2,19.2v38.4l-33.2,19.2L186.1,121.6z"/>
	<path style="clip-path:url(#SVGID_00000062193950108598614490000006963299227832330122_);fill:#F462D8;" d="M252.3,121.7V83.3
		l33.2-19.2l33.2,19.2v38.4l-33.2,19.2L252.3,121.7z"/>
	<path style="clip-path:url(#SVGID_00000062193950108598614490000006963299227832330122_);fill:#F462D8;" d="M119.9,121.6V83.2
		L153.1,64l33.2,19.2v38.4l-33.2,19.2L119.9,121.6z"/>
	<path style="clip-path:url(#SVGID_00000062193950108598614490000006963299227832330122_);fill:#F462D8;" d="M-12.6,121.6V83.3
		l33.2-19.2l33.2,19.2v38.4l-33.2,19.2L-12.6,121.6z"/>
	<path style="clip-path:url(#SVGID_00000062193950108598614490000006963299227832330122_);fill:#7037FB;" d="M53.7,121.7V83.3
		l33.2-19.2l33.2,19.2v38.4l-33.2,19.2L53.7,121.7z"/>
	<path style="clip-path:url(#SVGID_00000062193950108598614490000006963299227832330122_);fill:#7037FB;" d="M152.9,179.1v-38.4
		l33.2-19.2l33.2,19.2v38.4l-33.2,19.2L152.9,179.1z"/>
	<path style="clip-path:url(#SVGID_00000062193950108598614490000006963299227832330122_);fill:#7037FB;" d="M219.1,179.1v-38.4
		l33.2-19.2l33.2,19.2v38.4l-33.2,19.2L219.1,179.1z"/>
	<path style="clip-path:url(#SVGID_00000062193950108598614490000006963299227832330122_);fill:#7037FB;" d="M285.3,179.1v-38.4
		l33.2-19.2l33.2,19.2v38.4l-33.2,19.2L285.3,179.1z"/>
	<path style="clip-path:url(#SVGID_00000062193950108598614490000006963299227832330122_);fill:#7037FB;" d="M-45.8,179.1v-38.4
		l33.2-19.2l33.2,19.2v38.4l-33.2,19.2L-45.8,179.1z"/>
	<path style="clip-path:url(#SVGID_00000062193950108598614490000006963299227832330122_);fill:#7037FB;" d="M20.4,179.1v-38.4
		l33.2-19.2l33.2,19.2v38.4l-33.2,19.2L20.4,179.1z"/>
	<path style="clip-path:url(#SVGID_00000062193950108598614490000006963299227832330122_);fill:#7037FB;" d="M86.7,179.1v-38.4
		l33.2-19.2l33.2,19.2v38.4l-33.2,19.2L86.7,179.1z"/>
	<path style="clip-path:url(#SVGID_00000062193950108598614490000006963299227832330122_);fill:#F462D8;" d="M186.1,236.7v-38.4
		l33.2-19.2l33.2,19.2v38.4l-33.2,19.2L186.1,236.7z"/>
	<path style="clip-path:url(#SVGID_00000062193950108598614490000006963299227832330122_);fill:#7037FB;" d="M252.3,236.6v-38.4
		l33.2-19.2l33.2,19.2v38.4l-33.2,19.2L252.3,236.6z"/>
	<path style="clip-path:url(#SVGID_00000062193950108598614490000006963299227832330122_);fill:#7037FB;" d="M-12.6,236.7v-38.4
		l33.2-19.2l33.2,19.2v38.4l-33.2,19.2L-12.6,236.7z"/>
	<path style="clip-path:url(#SVGID_00000062193950108598614490000006963299227832330122_);fill:#7037FB;" d="M119.9,236.6v-38.4
		l33.2-19.2l33.2,19.2v38.4l-33.2,19.2L119.9,236.6z"/>
	<path style="clip-path:url(#SVGID_00000062193950108598614490000006963299227832330122_);fill:#F462D8;" d="M53.7,236.6v-38.4
		l33.2-19.2l33.2,19.2v38.4l-33.2,19.2L53.7,236.6z"/>
</g>
</svg>
