<?xml version="1.0" encoding="utf-8"?>
<!-- Generator: Adobe Illustrator 27.8.0, SVG Export Plug-In . SVG Version: 6.00 Build 0)  -->
<svg version="1.1" id="Layer_1" xmlns="http://www.w3.org/2000/svg" xmlns:xlink="http://www.w3.org/1999/xlink" x="0px" y="0px"
	 viewBox="0 0 311 201" style="enable-background:new 0 0 311 201;" xml:space="preserve">
<style type="text/css">
	.st0{clip-path:url(#SVGID_00000023961225245442008910000010673326599675231146_);fill:#F9FF00;}
	.st1{clip-path:url(#SVGID_00000023961225245442008910000010673326599675231146_);fill:#F462D8;}
</style>
<g>
	<defs>
		<rect id="SVGID_1_" width="311" height="201"/>
	</defs>
	<clipPath id="SVGID_00000079454224374470763190000013651037174144148126_">
		<use xlink:href="#SVGID_1_"  style="overflow:visible;"/>
	</clipPath>
	<path style="clip-path:url(#SVGID_00000079454224374470763190000013651037174144148126_);fill:#F9FF00;" d="M-272,102L-272,102
		c0,224.2,181.8,406,406,406c224.2,0,406-181.8,406-406v0c0-224.2-181.8-406-406-406C-90.2-304-272-122.2-272,102z"/>
	<path style="clip-path:url(#SVGID_00000079454224374470763190000013651037174144148126_);fill:#F462D8;" d="M264.1,125.5V78.6
		h-19.4v46.8H264.1z"/>
	<path style="clip-path:url(#SVGID_00000079454224374470763190000013651037174144148126_);fill:#F462D8;" d="M221.2,125.4V78.6
		h-19.4v46.8H221.2z"/>
	<path style="clip-path:url(#SVGID_00000079454224374470763190000013651037174144148126_);fill:#F462D8;" d="M182.6,125.4V78.6
		h-19.4v46.8H182.6z"/>
	<path style="clip-path:url(#SVGID_00000079454224374470763190000013651037174144148126_);fill:#F462D8;" d="M144,125.4V78.6h-19.4
		v46.8H144z"/>
	<path style="clip-path:url(#SVGID_00000079454224374470763190000013651037174144148126_);fill:#F462D8;" d="M105.4,125.4V78.6H86
		v46.8H105.4z"/>
	<path style="clip-path:url(#SVGID_00000079454224374470763190000013651037174144148126_);fill:#F462D8;" d="M66.9,125.4V78.6H47.4
		v46.8H66.9z"/>
	<path style="clip-path:url(#SVGID_00000079454224374470763190000013651037174144148126_);fill:#F462D8;" d="M-29.9,111.8h360V92.3
		h-360V111.8z"/>
</g>
</svg>
